<?xml version="1.0" standalone="no"?><!DOCTYPE svg PUBLIC "-//W3C//DTD SVG 1.1//EN" "http://www.w3.org/Graphics/SVG/1.1/DTD/svg11.dtd"><svg t="1767492112010" class="icon" viewBox="0 0 1024 1024" version="1.1" xmlns="http://www.w3.org/2000/svg" p-id="10904" xmlns:xlink="http://www.w3.org/1999/xlink" width="256" height="256"><path d="M512 960C264.96 960 64 759.04 64 512S264.96 64 512 64 960 264.96 960 512 759.04 960 512 960z m0-853.333333c-223.573333 0-405.333333 181.76-405.333333 405.333333s181.76 405.333333 405.333333 405.333333 405.333333-181.76 405.333333-405.333333-181.76-405.333333-405.333333-405.333333z" fill="#666666" p-id="10905"></path><path d="M430.933333 513.28c-20.48 25.6-33.706667 5.546667-18.773333-14.506667 60.586667-80.64 95.573333-82.773333 134.826667-82.773333 10.24 0 17.493333 1.706667 21.333333 4.693333 3.84 2.986667 5.973333 8.106667 5.973333 14.933334 0 10.24-8.96 44.373333-27.306666 102.4-29.44 100.693333-44.373333 160-44.373334 178.346666 0 8.96 2.986667 13.653333 8.533334 13.653334 11.52 0 47.36-55.893333 90.026666-55.893334 0 0 42.666667 0-4.693333 20.906667-19.626667 8.533333-63.573333 57.173333-81.92 67.84-18.346667 10.666667-33.706667 15.786667-46.08 15.786667-10.24 0-17.92-3.84-22.613333-11.093334-4.693333-7.253333-7.253333-15.36-7.253334-23.893333 0-31.146667 20.906667-116.053333 63.146667-254.293333 2.133333-6.826667 3.413333-12.373333 3.413333-16.213334 0-6.4-3.413333-9.386667-10.24-9.386666-9.813333 0-22.186667-2.986667-64 49.493333z" fill="#666666" p-id="10906"></path><path d="M554.666667 298.666667m-42.666667 0a42.666667 42.666667 0 1 0 85.333333 0 42.666667 42.666667 0 1 0-85.333333 0Z" fill="#666666" p-id="10907"></path></svg>